<?xml version="1.0"?><svg xmlns="http://www.w3.org/2000/svg" id="Bahan" viewBox="0 0 64 64"><title/><path d="M10.8,16.49h3.88a1,1,0,1,0,0-2H10.8A1,1,0,0,0,10.8,16.49Z"/><path d="M10.8,49.11h3.88a1,1,0,0,0,0-2H10.8A1,1,0,0,0,10.8,49.11Z"/><path d="M35.09,10.4a1,1,0,0,0-1,1v1.69H30.72V11.4a1,1,0,1,0-2,0v5.39a1,1,0,0,0,2,0v-1.7h3.37v1.7a1,1,0,0,0,2,0V11.4A1,1,0,0,0,35.09,10.4Z"/><path d="M48.8,51.12a1,1,0,0,0,1-1V45.2a1,1,0,0,0-2,0v1.46H44.89V45.2a1,1,0,0,0-2,0v4.92a1,1,0,0,0,2,0V48.66H47.8v1.46A1,1,0,0,0,48.8,51.12Z"/><path d="M33,18.9H31.79A3.08,3.08,0,0,0,28.72,22v2.56a3.08,3.08,0,0,0,3.07,3.07H33a3.08,3.08,0,0,0,3.07-3.07V22A3.08,3.08,0,0,0,33,18.9Zm1.07,5.64A1.07,1.07,0,0,1,33,25.61H31.79a1.07,1.07,0,0,1-1.07-1.07V22a1.08,1.08,0,0,1,1.07-1.08H33A1.08,1.08,0,0,1,34.09,22Z"/><path d="M35.09,28.69H29.72a1,1,0,0,0,0,2h1.69V35.2a1,1,0,0,0,2,0V30.69h1.68A1,1,0,0,0,35.09,28.69Z"/><path d="M35.09,52.28H30.72V47.46a1,1,0,0,0-2,0v5.82a1,1,0,0,0,1,1h5.37A1,1,0,0,0,35.09,52.28Z"/><path d="M35.09,39.3a1,1,0,0,0,0-2H29.72a1,1,0,0,0-1,1V45a1,1,0,0,0,1,1h5.37a1,1,0,0,0,0-2H30.72V42.82h4.37a1,1,0,0,0,0-2H30.72V39.3Z"/><path d="M53.21,9.89l-4.5-.06a1,1,0,0,0-1,1,1,1,0,0,0,1,1l3.51.05V54H40.3V11.89h5.3a1,1,0,0,0,0-2H43.31V6.17a1,1,0,0,0-1-1H23.67a1,1,0,0,0-1,1V9.83H10.8a1,1,0,0,0,0,2H22.67v2.66H17.88a1,1,0,0,0,0,2h4.79V47.11H17.88a1,1,0,0,0-1,1,1,1,0,0,0,1,1h4.79v2.66H10.8a1,1,0,0,0,0,2H22.67v4.06a1,1,0,0,0,1,1H42.31a1,1,0,0,0,1-1V56H53.2a1,1,0,0,0,1-1V10.89A1,1,0,0,0,53.21,9.89ZM41.31,56.83H24.67V7.17H41.31V9.89h-2a1,1,0,0,0-1,1V55a1,1,0,0,0,1,1h2Z"/><path d="M48.37,17.14h-5a1,1,0,0,0,0,2h4v1.93c-5.89.11-4.91-1-5,4.93a1,1,0,0,0,1,1h5a1,1,0,0,0,0-2h-4V23.07h4a1,1,0,0,0,1-1V18.14A1,1,0,0,0,48.37,17.14Z"/><path d="M43.39,28.45a1,1,0,0,0-1,1v3a1,1,0,0,0,1,1h4v3.31a1,1,0,0,0,2,0V29.45a1,1,0,1,0-2,0v2h-3v-2A1,1,0,0,0,43.39,28.45Z"/></svg>